<svg xmlns="http://www.w3.org/2000/svg" width="920" height="420" viewBox="0 0 920 420">
<rect width="100%" height="100%" fill="white"/>
<text x="72" y="26" font-family="Arial" font-size="18" font-weight="700">RQ4 adaptive Qwen judged readiness</text>
<line x1="72" y1="44" x2="72" y2="295" stroke="#333"/>
<line x1="72" y1="295" x2="896" y2="295" stroke="#333"/>
<line x1="72" y1="295.00" x2="896" y2="295.00" stroke="#e5e7eb"/>
<text x="62" y="299.00" text-anchor="end" font-family="Arial" font-size="12">0</text>
<line x1="72" y1="244.80" x2="896" y2="244.80" stroke="#e5e7eb"/>
<text x="62" y="248.80" text-anchor="end" font-family="Arial" font-size="12">2</text>
<line x1="72" y1="194.60" x2="896" y2="194.60" stroke="#e5e7eb"/>
<text x="62" y="198.60" text-anchor="end" font-family="Arial" font-size="12">4</text>
<line x1="72" y1="144.40" x2="896" y2="144.40" stroke="#e5e7eb"/>
<text x="62" y="148.40" text-anchor="end" font-family="Arial" font-size="12">6</text>
<line x1="72" y1="94.20" x2="896" y2="94.20" stroke="#e5e7eb"/>
<text x="62" y="98.20" text-anchor="end" font-family="Arial" font-size="12">8</text>
<line x1="72" y1="44.00" x2="896" y2="44.00" stroke="#e5e7eb"/>
<text x="62" y="48.00" text-anchor="end" font-family="Arial" font-size="12">10</text>
<rect x="114.85" y="144.40" width="79.10" height="150.60" fill="#0f766e"/>
<text x="154.40" y="138.40" text-anchor="middle" font-family="Arial" font-size="12">6.00</text>
<text x="154.40" y="313" text-anchor="start" font-family="Arial" font-size="11" transform="rotate(35 154.40,313)">no_skill (n=1)</text>
<rect x="279.65" y="44.00" width="79.10" height="251.00" fill="#0f766e"/>
<text x="319.20" y="38.00" text-anchor="middle" font-family="Arial" font-size="12">10.00</text>
<text x="319.20" y="313" text-anchor="start" font-family="Arial" font-size="11" transform="rotate(35 319.20,313)">oracle_gold_all (n=1)</text>
<rect x="444.45" y="169.50" width="79.10" height="125.50" fill="#0f766e"/>
<text x="484.00" y="163.50" text-anchor="middle" font-family="Arial" font-size="12">5.00</text>
<text x="484.00" y="313" text-anchor="start" font-family="Arial" font-size="11" transform="rotate(35 484.00,313)">bm25_top1 (n=1)</text>
<rect x="609.25" y="119.30" width="79.10" height="175.70" fill="#0f766e"/>
<text x="648.80" y="113.30" text-anchor="middle" font-family="Arial" font-size="12">7.00</text>
<text x="648.80" y="313" text-anchor="start" font-family="Arial" font-size="11" transform="rotate(35 648.80,313)">hybrid_bm25_neural_top10 (n=1)</text>
<rect x="774.05" y="44.00" width="79.10" height="251.00" fill="#0f766e"/>
<text x="813.60" y="38.00" text-anchor="middle" font-family="Arial" font-size="12">10.00</text>
<text x="813.60" y="313" text-anchor="start" font-family="Arial" font-size="11" transform="rotate(35 813.60,313)">oracle_gold_plus_5_noise (n=1)</text>
</svg>
