<svg xmlns="http://www.w3.org/2000/svg" width="980" height="520" viewBox="0 0 980 520">
<rect width="100%" height="100%" fill="white"/>
<text x="75" y="35" font-family="Arial" font-size="23" font-weight="700">Paired change in gold recall vs Hybrid Top-10</text>
<text x="75" y="58" font-family="Arial" font-size="13" fill="#64748b">Paired task means; intervals are paired task-bootstrap 95% CIs (61 multi-skill tasks)</text>
<line x1="384.2" y1="60" x2="384.2" y2="410" stroke="#0f172a" stroke-dasharray="5,5"/>
<text x="252" y="122" text-anchor="end" font-family="Arial" font-size="13">Semantic graph</text>
<line x1="346.8" y1="118" x2="469.5" y2="118" stroke="#2563eb" stroke-width="5"/>
<line x1="346.8" y1="111" x2="346.8" y2="125" stroke="#2563eb" stroke-width="2"/>
<line x1="469.5" y1="111" x2="469.5" y2="125" stroke="#2563eb" stroke-width="2"/>
<circle cx="406.0" cy="118" r="7" fill="#2563eb" stroke="white" stroke-width="2"/>
<text x="479.5" y="122" font-family="Arial" font-size="11">+0.011 [-0.020, +0.045]</text>
<text x="252" y="196" text-anchor="end" font-family="Arial" font-size="13">CV co-required</text>
<line x1="360.8" y1="192" x2="415.4" y2="192" stroke="#8b5cf6" stroke-width="5"/>
<line x1="360.8" y1="185" x2="360.8" y2="199" stroke="#8b5cf6" stroke-width="2"/>
<line x1="415.4" y1="185" x2="415.4" y2="199" stroke="#8b5cf6" stroke-width="2"/>
<circle cx="389.4" cy="192" r="7" fill="#8b5cf6" stroke="white" stroke-width="2"/>
<text x="425.4" y="196" font-family="Arial" font-size="11">+0.003 [-0.012, +0.016]</text>
<text x="252" y="270" text-anchor="end" font-family="Arial" font-size="13">CV all edges</text>
<line x1="330.1" y1="266" x2="472.1" y2="266" stroke="#0f766e" stroke-width="5"/>
<line x1="330.1" y1="259" x2="330.1" y2="273" stroke="#0f766e" stroke-width="2"/>
<line x1="472.1" y1="259" x2="472.1" y2="273" stroke="#0f766e" stroke-width="2"/>
<circle cx="399.8" cy="266" r="7" fill="#0f766e" stroke="white" stroke-width="2"/>
<text x="482.1" y="270" font-family="Arial" font-size="11">+0.008 [-0.028, +0.046]</text>
<text x="252" y="344" text-anchor="end" font-family="Arial" font-size="13">Transductive upper bound</text>
<line x1="566.7" y1="340" x2="821.3" y2="340" stroke="#dc2626" stroke-width="5"/>
<line x1="566.7" y1="333" x2="566.7" y2="347" stroke="#dc2626" stroke-width="2"/>
<line x1="821.3" y1="333" x2="821.3" y2="347" stroke="#dc2626" stroke-width="2"/>
<circle cx="684.5" cy="340" r="7" fill="#dc2626" stroke="white" stroke-width="2"/>
<text x="831.3" y="344" font-family="Arial" font-size="11">+0.158 [+0.096, +0.230]</text>
<text x="289.0" y="438" text-anchor="middle" font-family="Arial" font-size="12">-0.05</text>
<text x="384.2" y="438" text-anchor="middle" font-family="Arial" font-size="12">+0.00</text>
<text x="479.4" y="438" text-anchor="middle" font-family="Arial" font-size="12">+0.05</text>
<text x="574.5" y="438" text-anchor="middle" font-family="Arial" font-size="12">+0.10</text>
<text x="669.7" y="438" text-anchor="middle" font-family="Arial" font-size="12">+0.15</text>
<text x="764.8" y="438" text-anchor="middle" font-family="Arial" font-size="12">+0.20</text>
<text x="860.0" y="438" text-anchor="middle" font-family="Arial" font-size="12">+0.25</text>
</svg>
